<svg xmlns="http://www.w3.org/2000/svg" xmlns:xlink="http://www.w3.org/1999/xlink" width="512" height="512" viewBox="0 0 512 512"><defs><style/><linearGradient id="linear-gradient" x1="742.94" x2="742.94" y1="1571.79" y2="1817.02" gradientTransform="translate(378.23 -1532.53) rotate(28.94)" gradientUnits="userSpaceOnUse"><stop offset="0" stop-color="#e36b44"/><stop offset="0" stop-color="#e36b44"/><stop offset=".46" stop-color="#ef9f48"/><stop offset=".81" stop-color="#f7c04b"/><stop offset="1" stop-color="#facc4c"/></linearGradient><linearGradient id="linear-gradient-2" x1="678.75" x2="678.75" y1="1600.84" y2="1686.75" gradientTransform="translate(378.23 -1532.53) rotate(28.94)" gradientUnits="userSpaceOnUse"><stop offset="0" stop-color="#d15334"/><stop offset=".6" stop-color="#dd6d38"/><stop offset="1" stop-color="#e3793a"/></linearGradient><linearGradient id="linear-gradient-3" x1="690.98" x2="690.98" y1="1475.34" y2="1570.17" gradientTransform="translate(378.23 -1532.53) rotate(28.94)" gradientUnits="userSpaceOnUse"><stop offset="0" stop-color="#e36e46"/><stop offset=".25" stop-color="#eb9870"/><stop offset=".6" stop-color="#f5cca2"/><stop offset=".86" stop-color="#fbedc2"/><stop offset="1" stop-color="#fdf9ce"/></linearGradient><linearGradient id="linear-gradient-4" x1="647.16" x2="647.16" y1="1636.17" y2="1738.46" gradientTransform="translate(378.23 -1532.53) rotate(28.94)" gradientUnits="userSpaceOnUse"><stop offset="0" stop-color="#92331f"/><stop offset=".33" stop-color="#af3e29"/><stop offset=".76" stop-color="#cf4b35"/><stop offset="1" stop-color="#db5039"/></linearGradient><linearGradient id="linear-gradient-5" x1="669.7" x2="728.28" y1="1721.7" y2="1825.89" gradientTransform="translate(378.23 -1532.53) rotate(28.94)" gradientUnits="userSpaceOnUse"><stop offset="0" stop-color="#a64224"/><stop offset=".11" stop-color="#ad4826"/><stop offset=".68" stop-color="#cd652f"/><stop offset="1" stop-color="#d97033"/></linearGradient><linearGradient id="linear-gradient-6" x1="620.21" x2="620.21" y1="1619.68" y2="1647.08" gradientTransform="translate(378.23 -1532.53) rotate(28.94)" gradientUnits="userSpaceOnUse"><stop offset="0" stop-color="#8b1e1b"/><stop offset="1" stop-color="#8d231d"/></linearGradient><linearGradient id="linear-gradient-7" x1="3608.39" x2="3608.39" y1="1619.68" y2="1647.08" gradientTransform="matrix(-0.88, -0.48, -0.48, 0.88, 4293.67, 632.31)" xlink:href="#linear-gradient-6"/><linearGradient id="linear-gradient-8" x1="584.6" x2="636.91" y1="1581.1" y2="1610.85" gradientTransform="translate(378.23 -1532.53) rotate(28.94)" gradientUnits="userSpaceOnUse"><stop offset="0" stop-color="#b94e2e"/><stop offset=".63" stop-color="#d56c35"/><stop offset="1" stop-color="#e17838"/></linearGradient><linearGradient id="linear-gradient-9" x1="742.65" x2="620.04" y1="1474.8" y2="1580.41" gradientTransform="translate(378.23 -1532.53) rotate(28.94)" gradientUnits="userSpaceOnUse"><stop offset="0" stop-color="#e37a47"/><stop offset=".11" stop-color="#e6884c"/><stop offset=".52" stop-color="#f2bc5c"/><stop offset=".83" stop-color="#f9dd66"/><stop offset="1" stop-color="#fce96a"/></linearGradient><linearGradient id="linear-gradient-10" x1="4057.43" x2="4057.43" y1="1600.84" y2="1686.75" gradientTransform="matrix(-0.88, -0.48, -0.48, 0.88, 4635.42, 821.26)" xlink:href="#linear-gradient-2"/><linearGradient id="linear-gradient-11" x1="794.91" x2="794.91" y1="1475.34" y2="1570.17" xlink:href="#linear-gradient-3"/><linearGradient id="linear-gradient-12" x1="4025.85" x2="4025.85" y1="1636.17" y2="1738.46" gradientTransform="matrix(-0.88, -0.48, -0.48, 0.88, 4635.42, 821.26)" xlink:href="#linear-gradient-4"/><linearGradient id="linear-gradient-13" x1="4048.38" x2="4106.97" y1="1721.7" y2="1825.89" gradientTransform="matrix(-0.88, -0.48, -0.48, 0.88, 4635.42, 821.26)" xlink:href="#linear-gradient-5"/><linearGradient id="linear-gradient-14" x1="3963.28" x2="4015.6" y1="1581.1" y2="1610.85" gradientTransform="matrix(-0.88, -0.48, -0.48, 0.88, 4635.42, 821.26)" xlink:href="#linear-gradient-8"/><linearGradient id="linear-gradient-15" x1="4121.34" x2="3998.73" y1="1474.8" y2="1580.41" gradientTransform="matrix(-0.88, -0.48, -0.48, 0.88, 4635.42, 821.26)" xlink:href="#linear-gradient-9"/><linearGradient id="linear-gradient-16" x1="744.2" x2="744.2" y1="1490.21" y2="1438.7" gradientTransform="translate(378.23 -1532.53) rotate(28.94)" gradientUnits="userSpaceOnUse"><stop offset="0" stop-color="#8d231d"/><stop offset=".13" stop-color="#962822"/><stop offset=".69" stop-color="#b63936"/><stop offset="1" stop-color="#c23f3d"/></linearGradient></defs><title>wax-logo</title><g id="Wax"><g><polygon points="509.93 306.14 351.29 174.65 301.52 174.65 400.04 256.24 368.51 281.99 304.63 207.92 262.22 207.92 176.9 305.97 212.67 207.92 178.49 207.92 153.62 276.11 127.85 207.92 108.1 207.92 106.64 207.92 86.9 207.92 61.12 276.11 36.26 207.92 2.07 207.92 38.82 308.65 83.97 308.65 107.37 245.72 130.77 308.65 174.57 308.65 149.6 337.35 191.56 337.35 283.15 230.31 309.41 261.71 274.92 261.71 257.37 282.42 326.72 282.42 346.68 306.27 389.45 306.27 425.21 277.08 460.29 306.14 509.93 306.14" class="cls-31"/><polygon points="434.87 228.73 459.2 207.92 509.93 207.92 460.29 249.37 434.87 228.73" class="cls-32"/></g></g></svg>